<svg width="32" height="32" viewBox="0 0 32 32" fill="none" xmlns="http://www.w3.org/2000/svg">
<path opacity="0.5" d="M31.9922 1.20267L24.1628 28.625C24.123 28.7495 23.9638 28.7868 23.8709 28.6997L18.6291 23.7828L22.5571 10.0406C22.5969 9.91608 22.4775 9.80405 22.3448 9.84139L7.69452 13.5259L2.47934 8.63396C2.38645 8.54683 2.42626 8.39746 2.55896 8.36011L31.7799 1.00351C31.9126 0.97861 32.032 1.09064 31.9922 1.20267Z" fill="#00B37E"/>
<path opacity="0.5" d="M18.6289 23.7826L16.6118 30.8778C16.572 31.0023 16.4128 31.0396 16.3199 30.9525L0.0506254 15.704C-0.0422659 15.6169 -0.00245554 15.4675 0.130246 15.4302L7.69425 13.5257L18.6289 23.7826Z" fill="#00B37E"/>
<path d="M22.5565 10.0403L18.6285 23.7826L7.69385 13.5257L22.3441 9.84116C22.4768 9.80381 22.5963 9.91584 22.5565 10.0403Z" fill="#00B37E"/>
</svg>
